<svg width="35" height="35" viewBox="0 0 35 35" fill="none" xmlns="http://www.w3.org/2000/svg">
<path d="M26.7782 7.70651C26.9143 7.22539 26.9139 7.22527 26.9134 7.22514L26.9125 7.22489L26.9106 7.22435L26.9063 7.22318L26.8958 7.22045C26.8879 7.21847 26.8784 7.21619 26.8673 7.21371C26.845 7.20876 26.816 7.20302 26.7805 7.1973C26.7095 7.18585 26.6122 7.1745 26.4889 7.1696C26.2419 7.15979 25.8923 7.17593 25.4406 7.26733C24.5708 7.44333 23.3309 7.89652 21.7183 8.96933C20.3517 8.61737 18.8871 8.42865 17.4479 8.42865L17.4473 8.42865C16.0068 8.43026 14.5724 8.61205 13.1776 8.96955C11.5723 7.89937 10.3757 7.4454 9.54697 7.26843C9.11603 7.1764 8.78574 7.15957 8.55127 7.16967C8.4342 7.17472 8.34169 7.18646 8.27313 7.19862C8.23888 7.2047 8.2107 7.21087 8.18852 7.21634C8.17743 7.21907 8.16784 7.22162 8.15976 7.22389L8.14876 7.22708L8.1441 7.22849L8.14198 7.22914L8.14098 7.22946C8.14049 7.22961 8.14001 7.22976 8.29072 7.70651L8.14001 7.22976L7.91305 7.30151L7.82565 7.5229C6.95038 9.73992 7.3051 11.4893 7.54888 12.2557C6.48772 13.5304 5.82643 15.1425 5.82643 17.0772C5.82643 20.5607 6.88237 22.783 8.52344 24.174C9.89643 25.3378 11.6229 25.87 13.3163 26.131C13.0484 26.5687 12.8353 27.1127 12.7203 27.7566C12.2468 27.944 11.5777 28.124 10.882 28.06C10.0922 27.9874 9.21988 27.5981 8.52281 26.404L8.52137 26.4014L8.51003 26.3816C8.5006 26.3654 8.48741 26.3432 8.47048 26.3158C8.43663 26.2612 8.38763 26.1857 8.32356 26.0959C8.19588 25.917 8.00579 25.6778 7.75355 25.4339C7.25245 24.9494 6.47514 24.4174 5.43475 24.3487L5.41829 24.3476H5.40179V24.8476C5.40179 24.3476 5.40163 24.3476 5.40146 24.3476H5.40109L5.40023 24.3476L5.39803 24.3476L5.39177 24.3476L5.37217 24.348C5.35612 24.3483 5.33414 24.349 5.30751 24.3503C5.25471 24.3528 5.18136 24.3579 5.09846 24.3682C4.95231 24.3865 4.70122 24.429 4.49362 24.5519C4.38429 24.6165 4.24316 24.7292 4.16425 24.9153C4.07902 25.1163 4.10008 25.3219 4.173 25.4955C4.29831 25.7938 4.60339 26.0657 5.00553 26.3382L5.04086 26.3622L5.07545 26.3779C5.0782 26.3792 5.08501 26.3827 5.09552 26.3885C5.11654 26.4001 5.15237 26.4211 5.20016 26.4531C5.29565 26.5172 5.43926 26.6261 5.60828 26.7948C5.94389 27.1296 6.38734 27.7076 6.75151 28.6552L6.75266 28.6585C6.75608 28.6684 6.76066 28.6811 6.7665 28.6966C6.77817 28.7275 6.7949 28.7694 6.81744 28.8204C6.86247 28.9222 6.93102 29.0609 7.02926 29.2211C7.2256 29.5414 7.54288 29.9516 8.0308 30.3234C8.94354 31.0189 10.3856 31.5297 12.5876 31.1823C12.59 31.6977 12.5952 32.1882 12.6004 32.6093C12.6026 32.7919 12.6049 32.9606 12.6069 33.1125C12.6113 33.4488 12.6146 33.7025 12.6146 33.8401C12.6146 33.9718 12.5682 34.0789 12.507 34.1359C12.4652 34.1747 12.3515 34.2521 12.058 34.199C5.34055 31.9287 0.5 25.5473 0.5 18.0087C0.5 8.56095 8.07926 0.931152 17.4479 0.931152C26.7883 0.931152 34.3946 8.56143 34.3668 18.0072V18.0087C34.3668 25.5472 29.5263 31.9283 22.8089 34.1994C22.5156 34.2523 22.4019 34.1749 22.3599 34.1359C22.2986 34.0788 22.2521 33.9715 22.2521 33.8397C22.2521 33.649 22.2553 33.3157 22.2594 32.8674C22.2616 32.6385 22.264 32.3796 22.2664 32.0944C22.2736 31.2533 22.2807 30.1895 22.2807 29.009C22.2807 27.7745 21.9945 26.8175 21.5604 26.1248C23.2615 25.8549 24.9924 25.3234 26.3677 24.1639C28.0131 22.7765 29.0693 20.5609 29.0693 17.0772C29.0693 15.149 28.4375 13.535 27.3505 12.2553C27.5853 11.5538 27.9054 10.0704 27.2623 7.58143L27.1905 7.30351L26.9143 7.22539L26.7782 7.70651Z" stroke="#E78A00"/>
</svg>
