<svg width="31" height="24" viewBox="0 0 31 24" fill="none" xmlns="http://www.w3.org/2000/svg">
<path d="M1.43124 3.18155V3.18113C1.43124 1.84984 2.50856 0.764465 3.83332 0.764465H27.1667C28.4947 0.764465 29.5833 1.85311 29.5833 3.18113V20.6811C29.5833 22.0092 28.4947 23.0978 27.1667 23.0978H3.83332C2.50536 23.0978 1.41676 22.0093 1.41666 20.6813C1.41666 20.6813 1.41666 20.6812 1.41666 20.6811L1.43124 3.18155ZM26.8484 6.88635L26.8484 6.88637L26.8529 6.88352C27.3569 6.5609 27.6667 6.01059 27.6667 5.41238C27.6667 4.03632 26.1667 3.22553 25.0092 3.9363L25.0092 3.93628L25.0057 3.93845L15.5 9.88308L5.99427 3.93845L5.99428 3.93844L5.99079 3.9363C4.83326 3.22553 3.33332 4.03632 3.33332 5.41238C3.33332 6.01059 3.64304 6.5609 4.14713 6.88352L4.14711 6.88354L4.1516 6.88635L14.462 13.3322L14.4621 13.3322C15.0909 13.7252 15.9091 13.7252 16.5379 13.3322L16.538 13.3322L26.8484 6.88635Z" stroke="#E78A00"/>
</svg>
